<svg width="629" height="205" viewBox="0 0 629 205" fill="none" xmlns="http://www.w3.org/2000/svg">
<path d="M95.8846 132.411H81.4263V162.494H96.9066V150.551L106.165 159.816L115.423 150.551V162.403H130.903V132.321H116.355L106.135 142.549L95.8846 132.411ZM165.892 151.092H156.874L161.353 144.143L165.892 151.092ZM169.619 132.411H153.237L133.729 162.494H149.72L151.884 159.124H171.032L173.196 162.494H189.067L169.619 132.411ZM161.443 53.5356C147.644 53.5398 134 56.4463 121.396 62.0666C108.792 67.6868 97.5083 75.8954 88.2776 86.1601C79.0468 96.4248 72.0747 108.516 67.8134 121.651C63.552 134.785 62.0965 148.67 63.5412 162.403H73.8514C73.4355 158.919 73.2248 155.414 73.2202 151.905C73.2492 139.889 75.7293 128.006 80.5086 116.984C85.2879 105.961 92.2657 96.0311 101.015 87.8023C109.763 79.5736 120.099 73.2192 131.388 69.1286C142.677 65.0379 154.682 63.2972 166.667 64.013C178.651 64.7288 190.364 67.886 201.087 73.2913C211.81 78.6966 221.317 86.2361 229.025 95.4478C236.734 104.659 242.482 115.349 245.918 126.863C249.353 138.376 250.404 150.47 249.004 162.403H259.315C260.764 148.671 259.313 134.788 255.055 121.653C250.797 108.519 243.828 96.4266 234.599 86.1613C225.371 75.8961 214.089 67.6869 201.486 62.0663C188.883 56.4458 175.241 53.5394 161.443 53.5356ZM207.283 132.411H192.073V162.494H207.553V148.957L225.829 162.494H241.309V132.411H225.679V146.069L207.283 132.411Z" fill="white"/>
<path d="M446.789 53.8906V111H434.25L417.18 83.4609C414.341 78.7214 412.648 75.8698 412.102 74.9062C411.555 73.9427 410.852 72.5234 409.992 70.6484C410.331 74.9453 410.5 80.2839 410.5 86.6641V111H398.508V53.8906H411.203L427.844 80.8438C431.229 86.3906 433.716 90.7786 435.305 94.0078C434.966 88.1224 434.797 82.6797 434.797 77.6797V53.8906H446.789ZM508.43 80.2188V111H500.461L499.211 104.477C494.992 109.737 489.302 112.367 482.141 112.367C473.417 112.367 466.529 109.138 461.477 102.68C457.284 97.2891 455.188 90.6354 455.188 82.7188C455.188 73.7344 457.922 66.3776 463.391 60.6484C468.521 55.2318 475.135 52.5234 483.234 52.5234C490.76 52.5234 496.88 54.9453 501.594 59.7891C505.109 63.4349 507.128 67.7318 507.648 72.6797H495.578C494.953 69.6068 493.547 67.2109 491.359 65.4922C489.198 63.7734 486.451 62.9141 483.117 62.9141C478.065 62.9141 474.159 64.8672 471.398 68.7734C468.977 72.1849 467.766 76.7943 467.766 82.6016C467.766 88.2786 468.898 92.7839 471.164 96.1172C473.951 100.206 478.065 102.25 483.508 102.25C487.44 102.25 490.656 101.065 493.156 98.6953C495.682 96.3255 497.01 93.2135 497.141 89.3594H484.445V80.2188H508.43ZM565.266 53.8906L546.906 81.1172L566.945 111H551.945L543.43 97.4844C541.971 95.1667 540.669 92.7708 539.523 90.2969C538.43 92.4844 537.036 94.8932 535.344 97.5234L526.711 111H512.453L532.609 81.1172L514.016 53.8906H528.625L535.578 65.1406C537.427 68.1354 538.872 70.8177 539.914 73.1875C541.164 70.6354 542.57 68.0964 544.133 65.5703L551.438 53.8906H565.266Z" fill="white"/>
<path d="M424.982 128.876V134.809H415.205V161H408.217V134.809H398.505V128.876H424.982ZM434.475 137.072C437.961 137.072 440.81 138.192 443.022 140.434C445.205 142.66 446.296 145.626 446.296 149.333C446.296 153.141 445.131 156.181 442.802 158.451C440.62 160.575 437.778 161.637 434.277 161.637C430.542 161.637 427.568 160.458 425.356 158.1C423.247 155.844 422.192 152.929 422.192 149.354C422.192 145.795 423.217 142.931 425.268 140.763C427.583 138.302 430.651 137.072 434.475 137.072ZM434.123 141.796C432.468 141.796 431.127 142.47 430.102 143.817C429.106 145.15 428.608 146.996 428.608 149.354C428.608 151.786 429.106 153.646 430.102 154.936C431.127 156.254 432.519 156.913 434.277 156.913C435.932 156.913 437.25 156.312 438.232 155.111C439.316 153.793 439.858 151.874 439.858 149.354C439.858 146.981 439.375 145.15 438.408 143.861C437.397 142.484 435.969 141.796 434.123 141.796ZM461.984 137.072C465.471 137.072 468.32 138.192 470.532 140.434C472.714 142.66 473.806 145.626 473.806 149.333C473.806 153.141 472.641 156.181 470.312 158.451C468.129 160.575 465.288 161.637 461.787 161.637C458.051 161.637 455.078 160.458 452.866 158.1C450.756 155.844 449.702 152.929 449.702 149.354C449.702 145.795 450.727 142.931 452.778 140.763C455.092 138.302 458.161 137.072 461.984 137.072ZM461.633 141.796C459.978 141.796 458.637 142.47 457.612 143.817C456.616 145.15 456.118 146.996 456.118 149.354C456.118 151.786 456.616 153.646 457.612 154.936C458.637 156.254 460.029 156.913 461.787 156.913C463.442 156.913 464.76 156.312 465.742 155.111C466.826 153.793 467.368 151.874 467.368 149.354C467.368 146.981 466.884 145.15 465.917 143.861C464.907 142.484 463.479 141.796 461.633 141.796ZM484.506 128.876V161H478.134V128.876H484.506ZM509.094 144.477H503.117C502.985 143.656 502.758 143.041 502.436 142.631C501.762 141.796 500.539 141.378 498.767 141.378C497.639 141.378 496.76 141.583 496.13 141.994C495.515 142.389 495.207 142.946 495.207 143.664C495.207 144.44 495.544 145.004 496.218 145.355C496.906 145.707 498.474 146.132 500.92 146.63C503.996 147.245 506.215 148.007 507.578 148.915C509.204 149.984 510.017 151.61 510.017 153.793C510.017 156.283 509.021 158.224 507.028 159.616C505.08 160.963 502.487 161.637 499.25 161.637C492.292 161.637 488.637 158.898 488.286 153.419H494.394C494.511 154.489 494.79 155.302 495.229 155.858C496.049 156.84 497.404 157.331 499.294 157.331C500.612 157.331 501.66 157.074 502.436 156.562C503.212 156.034 503.601 155.331 503.601 154.452C503.601 153.778 503.381 153.258 502.941 152.892C502.59 152.599 502.099 152.35 501.469 152.145C500.854 151.925 499.821 151.654 498.371 151.332C496.262 150.863 494.782 150.497 493.933 150.233C493.083 149.97 492.314 149.647 491.625 149.267C490.747 148.769 490.051 148.073 489.538 147.179C489.04 146.271 488.791 145.275 488.791 144.191C488.791 141.745 489.831 139.892 491.911 138.632C493.596 137.592 495.925 137.072 498.898 137.072C502.868 137.072 505.725 138.053 507.468 140.016C508.405 141.056 508.947 142.543 509.094 144.477Z" fill="#E40045"/>
</svg>
